<?xml version="1.0" encoding="utf-8"?>
<!-- Generator: Adobe Illustrator 24.1.0, SVG Export Plug-In . SVG Version: 6.00 Build 0)  -->
<svg version="1.1" id="Layer_1" xmlns="http://www.w3.org/2000/svg" xmlns:xlink="http://www.w3.org/1999/xlink" x="0px" y="0px"
	 viewBox="0 0 48 48" style="enable-background:new 0 0 48 48;" xml:space="preserve">
<circle cx="24" cy="24" r="7"/>
<path d="M24,8C15.2,8,8,15.2,8,24s7.2,16,16,16s16-7.2,16-16S32.8,8,24,8z M24,36c-6.6,0-12-5.4-12-12s5.4-12,12-12s12,5.4,12,12
	S30.6,36,24,36z"/>
<path d="M24,0C10.8,0,0,10.8,0,24s10.8,24,24,24s24-10.8,24-24S37.2,0,24,0z M24,44C13,44,4,35,4,24S13,4,24,4s20,9,20,20
	S35,44,24,44z"/>
</svg>
