<?xml version="1.0" encoding="utf-8"?>
<!-- Generator: Adobe Illustrator 24.1.0, SVG Export Plug-In . SVG Version: 6.00 Build 0)  -->
<svg version="1.1" id="Layer_1" xmlns="http://www.w3.org/2000/svg" xmlns:xlink="http://www.w3.org/1999/xlink" x="0px" y="0px"
	 viewBox="0 0 48 48" style="enable-background:new 0 0 48 48;" xml:space="preserve">
<path d="M4,12h40c1.1,0,2,0.9,2,2v32c0,1.1-0.9,2-2,2H4c-1.1,0-2-0.9-2-2V14C2,12.9,2.9,12,4,12z"/>
<path d="M40,10H8c-1.1,0-2-0.9-2-2v0c0-1.1,0.9-2,2-2h32c1.1,0,2,0.9,2,2v0C42,9.1,41.1,10,40,10z"/>
<path d="M38,4H10C8.9,4,8,3.1,8,2v0c0-1.1,0.9-2,2-2h28c1.1,0,2,0.9,2,2v0C40,3.1,39.1,4,38,4z"/>
</svg>
