<?xml version="1.0" encoding="utf-8"?>
<!-- Generator: Adobe Illustrator 24.1.0, SVG Export Plug-In . SVG Version: 6.00 Build 0)  -->
<svg version="1.1" id="Layer_1" xmlns="http://www.w3.org/2000/svg" xmlns:xlink="http://www.w3.org/1999/xlink" x="0px" y="0px"
	 viewBox="0 0 246.4 48" style="enable-background:new 0 0 246.4 48;" xml:space="preserve">
<g>
	<path d="M27,0c-9.1,0-13.6,4-16.8,7.1V1.5H0l0,44.9h10.3v-31c2.6-3.2,5.9-6.6,14.2-6.6c6.9,0,9.6,3.7,9.6,12.6v25h10.4V17.7
		C44.6,4,36.4,0,27,0"/>
	<path d="M73.2,0C55.3,0,48.1,11.9,48.1,23.9C48.1,41.9,60.9,48,73.2,48c12.3,0,25.2-6.1,25.2-24.1C98.4,11.9,91.1,0,73.2,0
		 M73.2,39.1c-9.3,0-14.6-5.8-14.6-15.3c0-10.6,6.7-14.9,14.6-14.9c7.9,0,14.7,4.3,14.7,14.9C87.9,33.3,82.5,39.1,73.2,39.1"/>
	<polyline points="136.9,1.5 121.8,34.9 106.7,1.5 95.3,1.5 116.5,46.5 126.9,46.5 148.3,1.5 136.9,1.5 	"/>
	<path d="M192.7,16.8c0-6.2-0.5-16.8-22.1-16.8c-8.4,0-20.3,2.1-22.9,14.4h10.9c0.6-2.4,2.6-6,12.1-6c8.5,0,11.6,2.4,11.6,5.9v2
		c-14.5,0.8-37,3-37,18.1c0,11.1,11.4,13.6,17.4,13.6c8.9,0,15.4-3.5,19.6-6c0,1.5,0.3,3,0.6,4.5h10.6c-0.7-1.3-0.8-4.2-0.8-7.3
		V16.8 M182.2,34.1c-4,2.5-10.3,5.9-18.1,5.9c-5.1,0-7.6-2.4-7.6-6.3c0.1-3.9,3.2-6.1,9.6-7.6c4.8-1.2,10.1-2,16.1-2.3V34.1z"/>
	<path d="M221.8,39.6c-12.8-0.5-14.4-9.9-14.8-12.7h39.4c0-16.2-8.2-26.7-25.1-26.9c-16.6,0-24.9,11.2-24.9,23.9
		c0,14.1,9.7,24.1,25.7,24.1c16.6,0,22.7-11.3,23.4-15h-11.3C232.7,36.5,228.3,39.6,221.8,39.6 M221.1,8.4c7.4,0,12.7,2.9,14.2,10.5
		h-28C209.4,10.2,215.7,8.4,221.1,8.4"/>
</g>
</svg>
