<?xml version="1.0" encoding="utf-8"?>
<!-- Generator: Adobe Illustrator 24.1.0, SVG Export Plug-In . SVG Version: 6.00 Build 0)  -->
<svg version="1.1" id="Layer_1" xmlns="http://www.w3.org/2000/svg" xmlns:xlink="http://www.w3.org/1999/xlink" x="0px" y="0px"
	 viewBox="0 0 220.5 48" style="enable-background:new 0 0 220.5 48;" xml:space="preserve">
<g>
	<g>
		<path d="M0.2,0.9h2.5v14.9h7.2v2.3H0.2V0.9z"/>
		<path d="M12.6,16.9c-0.8-1.1-1.3-2.9-1.3-5.3c0-2.4,0.4-4.1,1.2-5.2c0.8-1.1,2.1-1.7,3.8-1.7c1.5,0,2.6,0.5,3.4,1.5
			c0.7,1,1.1,2.7,1.1,4.9v1.1h-7c0,1.4,0.2,2.5,0.6,3.2c0.4,0.7,1.1,1,2,1c0.6,0,1.1-0.3,1.5-0.8c0.4-0.5,0.6-1.2,0.6-2.1h2.3
			c0,1.5-0.4,2.7-1.2,3.6c-0.8,0.9-1.9,1.3-3.2,1.3C14.7,18.5,13.5,18,12.6,16.9z M18.4,10.3c0-1.2-0.2-2-0.5-2.7
			C17.6,7,17,6.7,16.4,6.7c-0.8,0-1.4,0.3-1.8,0.9c-0.4,0.6-0.6,1.5-0.7,2.7H18.4z"/>
		<path d="M29.1,5h1.9l0.3,1.6h0.2c0.3-0.6,0.8-1.1,1.3-1.4c0.5-0.3,1.1-0.5,1.8-0.5c1.4,0,2.4,0.6,2.8,1.9c0.3-0.6,0.8-1.1,1.4-1.4
			c0.6-0.3,1.2-0.5,1.9-0.5c2.1,0,3.2,1.4,3.2,4.1v9.5h-2.4V9.1c0-0.9-0.1-1.5-0.4-1.8c-0.3-0.4-0.7-0.5-1.2-0.5
			c-0.6,0-1.1,0.3-1.5,0.9c-0.4,0.6-0.6,1.4-0.6,2.4v8.2h-2.3V9.1c0-0.9-0.1-1.5-0.4-1.8c-0.3-0.4-0.7-0.5-1.2-0.5
			c-0.6,0-1.1,0.3-1.5,0.9c-0.4,0.6-0.6,1.4-0.6,2.4v8.1h-2.4V5z"/>
		<path d="M47.4,16.9c-0.8-1.1-1.3-2.9-1.3-5.3c0-2.4,0.4-4.1,1.2-5.2c0.8-1.1,2.1-1.7,3.8-1.7c1.5,0,2.6,0.5,3.4,1.5
			c0.7,1,1.1,2.7,1.1,4.9v1.1h-7c0,1.4,0.2,2.5,0.6,3.2c0.4,0.7,1.1,1,2,1c0.6,0,1.1-0.3,1.5-0.8c0.4-0.5,0.6-1.2,0.6-2.1h2.3
			c0,1.5-0.4,2.7-1.2,3.6c-0.8,0.9-1.9,1.3-3.2,1.3C49.6,18.5,48.3,18,47.4,16.9z M53.2,10.3c0-1.2-0.2-2-0.5-2.7
			c-0.3-0.6-0.8-0.9-1.5-0.9c-0.8,0-1.4,0.3-1.8,0.9c-0.4,0.6-0.6,1.5-0.7,2.7H53.2z M51.7,0h2.5l0,0.1l-2.7,3.3h-2L51.7,0z"/>
		<path d="M58.8,16.8c-0.7-1.1-1.1-2.9-1.1-5.2c0-2.3,0.4-4,1.1-5.2c0.7-1.2,1.7-1.7,2.9-1.7c0.7,0,1.2,0.1,1.8,0.4
			c0.5,0.3,0.9,0.7,1.1,1.2h0.1V0h2.4v18.2h-1.9l-0.3-1.6h-0.1c-0.3,0.6-0.7,1.1-1.2,1.4c-0.5,0.3-1.1,0.5-1.7,0.5
			C60.5,18.5,59.5,17.9,58.8,16.8z M64.2,15.3c0.4-0.7,0.6-1.8,0.6-3.3v-0.9c0-2.9-0.8-4.4-2.3-4.4c-0.8,0-1.3,0.3-1.7,1
			c-0.4,0.7-0.5,1.8-0.5,3.3v1c0,1.5,0.2,2.6,0.5,3.3c0.4,0.7,0.9,1,1.7,1C63.2,16.4,63.8,16,64.2,15.3z"/>
		<path d="M69.8,0h2.4v2.5h-2.4V0z M69.8,5h2.4v13.3h-2.4V5z"/>
		<path d="M75.3,17.7c-0.7-0.5-1.1-1.5-1.1-2.9c0-1.7,0.6-2.9,1.7-3.5c1.2-0.7,2.8-1,4.9-1V8.7c0-0.6-0.1-1.1-0.4-1.5
			c-0.3-0.3-0.8-0.5-1.5-0.5c-0.7,0-1.2,0.2-1.4,0.5c-0.3,0.4-0.4,0.8-0.4,1.3v0.3h-2.3c0-0.1,0-0.3,0-0.6c0-1.2,0.4-2.1,1.2-2.7
			c0.8-0.6,1.8-1,3.1-1c1.4,0,2.4,0.3,3.1,1c0.7,0.7,1,1.6,1,2.8v7.1c0,0.3,0.1,0.5,0.2,0.7c0.1,0.2,0.3,0.2,0.5,0.2h0.8v1.7
			c-0.4,0.2-0.9,0.3-1.5,0.3c-0.6,0-1-0.1-1.4-0.4c-0.4-0.3-0.6-0.7-0.8-1.2h-0.1c-0.8,1.2-1.8,1.7-3.3,1.7
			C76.8,18.5,76,18.2,75.3,17.7z M80.1,15.6c0.5-0.6,0.7-1.3,0.7-2.3v-1.1c-1.3,0-2.4,0.2-3.1,0.5c-0.7,0.3-1.1,1-1.1,1.9
			c0,0.7,0.1,1.1,0.4,1.4c0.3,0.3,0.7,0.4,1.3,0.4C79,16.5,79.6,16.2,80.1,15.6z"/>
		<path d="M92.8,16.8c-0.7-1.1-1.1-2.9-1.1-5.2c0-2.3,0.4-4,1.1-5.2c0.7-1.2,1.7-1.7,2.9-1.7c0.7,0,1.2,0.1,1.8,0.4
			c0.5,0.3,0.9,0.7,1.1,1.2h0.1V0h2.4v18.2h-1.9l-0.3-1.6h-0.1c-0.3,0.6-0.7,1.1-1.2,1.4c-0.5,0.3-1.1,0.5-1.7,0.5
			C94.6,18.5,93.6,17.9,92.8,16.8z M98.2,15.3c0.4-0.7,0.6-1.8,0.6-3.3v-0.9c0-2.9-0.8-4.4-2.3-4.4c-0.8,0-1.3,0.3-1.7,1
			s-0.5,1.8-0.5,3.3v1c0,1.5,0.2,2.6,0.5,3.3c0.4,0.7,0.9,1,1.7,1C97.3,16.4,97.8,16,98.2,15.3z"/>
		<path d="M104.8,16.9c-0.8-1.1-1.3-2.9-1.3-5.3c0-2.4,0.4-4.1,1.2-5.2c0.8-1.1,2.1-1.7,3.8-1.7c1.5,0,2.6,0.5,3.4,1.5
			c0.7,1,1.1,2.7,1.1,4.9v1.1h-7c0,1.4,0.2,2.5,0.6,3.2c0.4,0.7,1.1,1,2,1c0.6,0,1.1-0.3,1.5-0.8c0.4-0.5,0.6-1.2,0.6-2.1h2.3
			c0,1.5-0.4,2.7-1.2,3.6c-0.8,0.9-1.9,1.3-3.2,1.3C106.9,18.5,105.7,18,104.8,16.9z M110.6,10.3c0-1.2-0.2-2-0.5-2.7
			c-0.3-0.6-0.8-0.9-1.5-0.9c-0.8,0-1.4,0.3-1.8,0.9c-0.4,0.6-0.6,1.5-0.7,2.7H110.6z"/>
		<path d="M121.1,0h2.4v18.2h-2.4V0z"/>
		<path d="M127,3.9h-1.1V0.9h2.8v2.7l-1.3,3.6h-1.5L127,3.9z"/>
		<path d="M132,16.9c-0.8-1.1-1.3-2.9-1.3-5.3c0-2.4,0.4-4.1,1.2-5.2c0.8-1.1,2.1-1.7,3.8-1.7c1.5,0,2.6,0.5,3.4,1.5
			c0.7,1,1.1,2.7,1.1,4.9v1.1h-7c0,1.4,0.2,2.5,0.6,3.2c0.4,0.7,1.1,1,2,1c0.6,0,1.1-0.3,1.5-0.8c0.4-0.5,0.6-1.2,0.6-2.1h2.3
			c0,1.5-0.4,2.7-1.2,3.6c-0.8,0.9-1.9,1.3-3.2,1.3C134.1,18.5,132.8,18,132,16.9z M137.7,10.3c0-1.2-0.2-2-0.5-2.7
			c-0.3-0.6-0.8-0.9-1.5-0.9c-0.8,0-1.4,0.3-1.8,0.9c-0.4,0.6-0.6,1.5-0.7,2.7H137.7z M136.3,0h2.5l0,0.1l-2.7,3.3h-2L136.3,0z"/>
		<path d="M143.3,16.8c-0.7-1.1-1.1-2.9-1.1-5.3c0-2.4,0.4-4.1,1.1-5.2c0.8-1.1,1.9-1.7,3.5-1.7c2.8,0,4.3,1.7,4.3,5.2h-2.4
			c0-1.1-0.1-1.9-0.4-2.4c-0.3-0.5-0.7-0.8-1.4-0.8c-0.7,0-1.3,0.4-1.6,1.1c-0.4,0.7-0.5,1.8-0.5,3.3v1c0,1.5,0.2,2.6,0.5,3.3
			c0.4,0.7,0.9,1.1,1.7,1.1c0.7,0,1.1-0.3,1.4-0.8c0.3-0.5,0.4-1.3,0.4-2.4h2.3c0,1.6-0.4,2.9-1.1,3.8c-0.7,0.9-1.8,1.4-3.1,1.4
			C145.2,18.5,144.1,18,143.3,16.8z"/>
		<path d="M154.2,16.8c-0.8-1.1-1.2-2.9-1.2-5.2c0-2.4,0.4-4.1,1.2-5.2c0.8-1.1,2.1-1.7,3.7-1.7c1.6,0,2.9,0.6,3.7,1.7
			c0.8,1.1,1.2,2.9,1.2,5.2c0,2.4-0.4,4.1-1.2,5.2c-0.8,1.1-2,1.7-3.7,1.7C156.2,18.5,155,18,154.2,16.8z M160.3,12.1v-1
			c0-2.9-0.8-4.4-2.4-4.4c-0.8,0-1.4,0.4-1.8,1.1c-0.4,0.7-0.6,1.8-0.6,3.3v1c0,1.5,0.2,2.6,0.6,3.3c0.4,0.7,1,1.1,1.8,1.1
			C159.5,16.5,160.3,15,160.3,12.1z"/>
		<path d="M165.2,5h1.9l0.3,1.6h0.2c0.4-0.6,0.8-1.1,1.4-1.4c0.6-0.3,1.2-0.5,1.9-0.5c2.2,0,3.4,1.4,3.4,4.1v9.5h-2.4V9.1
			c0-0.9-0.2-1.5-0.5-1.8c-0.3-0.4-0.8-0.5-1.4-0.5c-0.7,0-1.2,0.3-1.7,0.9c-0.5,0.6-0.7,1.4-0.7,2.4v8.1h-2.4V5z"/>
		<path d="M177.9,16.8c-0.8-1.1-1.2-2.9-1.2-5.2c0-2.4,0.4-4.1,1.2-5.2c0.8-1.1,2.1-1.7,3.7-1.7c1.6,0,2.9,0.6,3.7,1.7
			c0.8,1.1,1.2,2.9,1.2,5.2c0,2.4-0.4,4.1-1.2,5.2c-0.8,1.1-2,1.7-3.7,1.7C179.9,18.5,178.7,18,177.9,16.8z M184,12.1v-1
			c0-2.9-0.8-4.4-2.4-4.4c-0.8,0-1.4,0.4-1.8,1.1c-0.4,0.7-0.6,1.8-0.6,3.3v1c0,1.5,0.2,2.6,0.6,3.3c0.4,0.7,1,1.1,1.8,1.1
			C183.2,16.5,184,15,184,12.1z"/>
		<path d="M188.9,5h1.9l0.3,1.6h0.2c0.3-0.6,0.8-1.1,1.3-1.4c0.5-0.3,1.1-0.5,1.8-0.5c1.4,0,2.4,0.6,2.8,1.9
			c0.3-0.6,0.8-1.1,1.4-1.4c0.6-0.3,1.2-0.5,1.9-0.5c2.1,0,3.2,1.4,3.2,4.1v9.5h-2.4V9.1c0-0.9-0.1-1.5-0.4-1.8
			c-0.3-0.4-0.7-0.5-1.2-0.5c-0.6,0-1.1,0.3-1.5,0.9c-0.4,0.6-0.6,1.4-0.6,2.4v8.2h-2.3V9.1c0-0.9-0.1-1.5-0.4-1.8
			c-0.3-0.4-0.7-0.5-1.2-0.5c-0.6,0-1.1,0.3-1.5,0.9s-0.6,1.4-0.6,2.4v8.1h-2.4V5z"/>
		<path d="M206.3,0h2.4v2.5h-2.4V0z M206.3,5h2.4v13.3h-2.4V5z"/>
		<path d="M212.3,16.9c-0.8-1.1-1.3-2.9-1.3-5.3c0-2.4,0.4-4.1,1.2-5.2c0.8-1.1,2.1-1.7,3.8-1.7c1.5,0,2.6,0.5,3.4,1.5
			c0.7,1,1.1,2.7,1.1,4.9v1.1h-7c0,1.4,0.2,2.5,0.6,3.2s1.1,1,2,1c0.6,0,1.1-0.3,1.5-0.8c0.4-0.5,0.6-1.2,0.6-2.1h2.3
			c0,1.5-0.4,2.7-1.2,3.6c-0.8,0.9-1.9,1.3-3.2,1.3C214.4,18.5,213.1,18,212.3,16.9z M218,10.3c0-1.2-0.2-2-0.5-2.7
			c-0.3-0.6-0.8-0.9-1.5-0.9c-0.8,0-1.4,0.3-1.8,0.9c-0.4,0.6-0.6,1.5-0.7,2.7H218z"/>
		<path d="M0,30.2h1.9l0.3,1.6h0.1c0.3-0.6,0.7-1.1,1.2-1.4C4,30,4.6,29.9,5.2,29.9c1.3,0,2.3,0.6,3.1,1.7c0.7,1.1,1.1,2.9,1.1,5.2
			c0,2.3-0.4,4-1.1,5.2c-0.7,1.2-1.7,1.7-2.9,1.7c-0.7,0-1.2-0.1-1.8-0.4c-0.5-0.3-0.9-0.7-1.1-1.1H2.4v5.6H0V30.2z M6.3,40.6
			c0.4-0.7,0.6-1.8,0.6-3.3v-1c0-1.5-0.2-2.6-0.6-3.3c-0.4-0.7-0.9-1-1.7-1c-1.5,0-2.3,1.4-2.3,4.3v0.9c0,2.9,0.8,4.4,2.3,4.4
			C5.4,41.6,6,41.3,6.3,40.6z"/>
		<path d="M12.6,42c-0.8-1.1-1.2-2.9-1.2-5.2c0-2.4,0.4-4.1,1.2-5.2c0.8-1.1,2.1-1.7,3.7-1.7c1.6,0,2.9,0.6,3.7,1.7
			c0.8,1.1,1.2,2.9,1.2,5.2c0,2.4-0.4,4.1-1.2,5.2c-0.8,1.1-2,1.7-3.7,1.7C14.7,43.7,13.4,43.1,12.6,42z M18.7,37.3v-1
			c0-2.9-0.8-4.4-2.4-4.4c-0.8,0-1.4,0.4-1.8,1.1c-0.4,0.7-0.6,1.8-0.6,3.3v1c0,1.5,0.2,2.6,0.6,3.3c0.4,0.7,1,1.1,1.8,1.1
			C17.9,41.7,18.7,40.2,18.7,37.3z"/>
		<path d="M24.2,42.6c-0.8-0.8-1.1-1.7-1.1-2.8c0-0.2,0-0.3,0-0.4c0-0.1,0-0.1,0-0.1h2.4v0.2c0,0.8,0.2,1.3,0.6,1.7
			c0.4,0.4,0.9,0.5,1.5,0.5c0.5,0,1-0.2,1.4-0.5c0.4-0.3,0.6-0.8,0.6-1.3c0-0.4-0.1-0.8-0.3-1.1c-0.2-0.3-0.5-0.5-0.8-0.7
			c-0.3-0.2-0.8-0.3-1.4-0.5c-0.8-0.3-1.4-0.5-1.9-0.7c-0.5-0.2-0.9-0.6-1.2-1.1c-0.3-0.5-0.5-1.2-0.5-2c0-1.2,0.4-2.2,1.2-2.8
			s1.8-1,3.1-1c1.2,0,2.2,0.3,2.9,1c0.7,0.7,1.1,1.5,1.1,2.6l0,0.5h-2.4v-0.2c0-0.6-0.1-1-0.4-1.4c-0.3-0.4-0.7-0.5-1.3-0.5
			c-0.6,0-1,0.2-1.3,0.5c-0.3,0.3-0.4,0.7-0.4,1.2c0,0.5,0.2,0.9,0.6,1.2c0.4,0.3,1,0.5,1.8,0.8c0.8,0.3,1.5,0.5,2,0.8
			c0.5,0.3,0.9,0.6,1.3,1.2c0.4,0.5,0.5,1.2,0.5,2.1c0,1.4-0.4,2.5-1.2,3.1s-1.9,1-3.2,1C26,43.7,24.9,43.3,24.2,42.6z"/>
		<path d="M34.2,25.2h2.4v2.5h-2.4V25.2z M34.2,30.2h2.4v13.3h-2.4V30.2z"/>
		<path d="M40,42.8c-0.4-0.6-0.6-1.4-0.6-2.3v-8.2h-1.2v-2.1h1.2l0.5-3.7h1.9v3.7h1.8v2.1h-1.8v8.3c0,0.4,0.1,0.7,0.3,0.9
			c0.2,0.2,0.5,0.3,0.8,0.3h0.7v1.7c-0.2,0.1-0.4,0.2-0.7,0.3c-0.3,0.1-0.6,0.1-0.9,0.1C41.1,43.7,40.4,43.4,40,42.8z"/>
		<path d="M45.3,25.2h2.4v2.5h-2.4V25.2z M45.3,30.2h2.4v13.3h-2.4V30.2z"/>
		<path d="M49.2,30.2h2.5l1.8,6.4c0.1,0.3,0.2,0.6,0.2,0.9s0.2,0.6,0.2,0.9c0.2,1,0.4,1.5,0.4,1.7h0.1l0.3-1.2
			c0.3-1.2,0.5-2,0.6-2.4l1.7-6.3h2.4l-3.9,13.3h-2.5L49.2,30.2z"/>
		<path d="M61.9,42.1c-0.8-1.1-1.3-2.9-1.3-5.3c0-2.4,0.4-4.1,1.2-5.2c0.8-1.1,2.1-1.7,3.8-1.7c1.5,0,2.6,0.5,3.4,1.5
			c0.7,1,1.1,2.7,1.1,4.9v1.1h-7c0,1.4,0.2,2.5,0.6,3.2c0.4,0.7,1.1,1,2,1c0.6,0,1.1-0.3,1.5-0.8c0.4-0.5,0.6-1.2,0.6-2.1h2.3
			c0,1.5-0.4,2.7-1.2,3.6c-0.8,0.9-1.9,1.3-3.2,1.3C64,43.7,62.7,43.2,61.9,42.1z M67.7,35.5c0-1.2-0.2-2-0.5-2.7
			c-0.3-0.6-0.8-0.9-1.5-0.9c-0.8,0-1.4,0.3-1.8,0.9c-0.4,0.6-0.6,1.5-0.7,2.7H67.7z"/>
		<path d="M79.1,42.1c-0.8-1.1-1.3-2.9-1.3-5.3c0-2.4,0.4-4.1,1.2-5.2c0.8-1.1,2.1-1.7,3.8-1.7c1.5,0,2.6,0.5,3.4,1.5
			c0.7,1,1.1,2.7,1.1,4.9v1.1h-7c0,1.4,0.2,2.5,0.6,3.2c0.4,0.7,1.1,1,2,1c0.6,0,1.1-0.3,1.5-0.8c0.4-0.5,0.6-1.2,0.6-2.1h2.3
			c0,1.5-0.4,2.7-1.2,3.6c-0.8,0.9-1.9,1.3-3.2,1.3C81.2,43.7,80,43.2,79.1,42.1z M84.9,35.5c0-1.2-0.2-2-0.5-2.7
			c-0.3-0.6-0.8-0.9-1.5-0.9c-0.8,0-1.4,0.3-1.8,0.9s-0.6,1.5-0.7,2.7H84.9z"/>
		<path d="M90.5,42.8c-0.4-0.6-0.6-1.4-0.6-2.3v-8.2h-1.2v-2.1h1.2l0.5-3.7h1.9v3.7h1.8v2.1h-1.8v8.3c0,0.4,0.1,0.7,0.3,0.9
			c0.2,0.2,0.5,0.3,0.8,0.3h0.7v1.7c-0.2,0.1-0.4,0.2-0.7,0.3c-0.3,0.1-0.6,0.1-0.9,0.1C91.6,43.7,90.9,43.4,90.5,42.8z"/>
		<path d="M102.5,42.1c-0.8-1.1-1.3-2.9-1.3-5.3c0-2.4,0.4-4.1,1.2-5.2c0.8-1.1,2.1-1.7,3.8-1.7c1.5,0,2.6,0.5,3.4,1.5
			c0.7,1,1.1,2.7,1.1,4.9v1.1h-7c0,1.4,0.2,2.5,0.6,3.2s1.1,1,2,1c0.6,0,1.1-0.3,1.5-0.8s0.6-1.2,0.6-2.1h2.3c0,1.5-0.4,2.7-1.2,3.6
			c-0.8,0.9-1.9,1.3-3.2,1.3C104.6,43.7,103.3,43.2,102.5,42.1z M108.2,35.5c0-1.2-0.2-2-0.5-2.7c-0.3-0.6-0.8-0.9-1.5-0.9
			c-0.8,0-1.4,0.3-1.8,0.9c-0.4,0.6-0.6,1.5-0.7,2.7H108.2z"/>
		<path d="M113.2,30.2h1.9l0.3,1.6h0.2c0.4-0.6,0.8-1.1,1.4-1.4c0.6-0.3,1.2-0.5,1.9-0.5c2.2,0,3.4,1.4,3.4,4.1v9.5h-2.4v-9.1
			c0-0.9-0.2-1.5-0.5-1.8c-0.3-0.4-0.8-0.5-1.4-0.5c-0.7,0-1.2,0.3-1.7,0.9c-0.5,0.6-0.7,1.4-0.7,2.4v8.1h-2.4V30.2z"/>
		<path d="M124.8,47.1c-0.6-0.6-0.9-1.3-0.9-2.2c0-0.6,0.2-1.2,0.5-1.7c0.3-0.5,0.7-0.9,1.2-1.1c-0.3-0.2-0.6-0.5-0.8-0.9
			c-0.2-0.4-0.3-0.7-0.3-1.1c0-0.5,0.2-1,0.5-1.4c0.3-0.4,0.8-0.7,1.4-0.9c-0.5-0.4-0.9-0.9-1.2-1.5c-0.3-0.6-0.4-1.3-0.4-2
			c0-1.4,0.4-2.5,1.2-3.3c0.8-0.8,1.9-1.2,3.3-1.2c0.8,0,1.4,0.2,2,0.5c0.9-0.6,1.4-1.3,1.5-2.3h2c0,0.8-0.2,1.5-0.6,2.1
			c-0.4,0.6-0.9,0.9-1.6,1.1c0.8,0.8,1.1,1.8,1.1,3.1c0,1.4-0.4,2.4-1.2,3.3c-0.8,0.8-1.9,1.2-3.3,1.2h-1.4c-0.3,0-0.6,0.1-0.8,0.3
			c-0.2,0.2-0.3,0.5-0.3,0.8c0,0.3,0.1,0.5,0.3,0.7c0.2,0.2,0.5,0.3,0.8,0.3h4c0.9,0,1.6,0.3,2.2,0.9c0.6,0.6,0.9,1.4,0.9,2.3
			c0,1.1-0.4,2-1.1,2.8c-0.7,0.7-1.7,1.1-2.9,1.1h-4.1C126.1,48,125.3,47.7,124.8,47.1z M131.3,46.1c0.4,0,0.8-0.1,1.1-0.4
			c0.3-0.3,0.4-0.6,0.4-1c0-0.4-0.1-0.8-0.4-1c-0.3-0.3-0.6-0.4-1.1-0.4h-3.6c-0.5,0-0.8,0.1-1.1,0.4c-0.3,0.3-0.4,0.6-0.4,1
			c0,0.4,0.1,0.8,0.4,1c0.3,0.3,0.6,0.4,1,0.4H131.3z M130.9,36.2c0.4-0.5,0.6-1.1,0.6-1.9c0-0.8-0.2-1.5-0.5-1.9s-0.9-0.7-1.6-0.7
			c-0.7,0-1.2,0.2-1.6,0.7c-0.4,0.5-0.5,1.1-0.5,1.9c0,0.8,0.2,1.5,0.5,1.9c0.4,0.5,0.9,0.7,1.6,0.7C130,36.9,130.6,36.7,130.9,36.2
			z"/>
		<path d="M137.2,42.9c-0.7-0.5-1.1-1.5-1.1-2.9c0-1.7,0.6-2.9,1.7-3.5c1.2-0.7,2.8-1,4.9-1v-1.6c0-0.6-0.1-1.1-0.4-1.5
			c-0.3-0.3-0.8-0.5-1.5-0.5c-0.7,0-1.2,0.2-1.4,0.5c-0.3,0.4-0.4,0.8-0.4,1.3v0.3h-2.3c0-0.1,0-0.3,0-0.6c0-1.2,0.4-2.1,1.2-2.7
			c0.8-0.6,1.8-1,3.1-1c1.4,0,2.4,0.3,3.1,1c0.7,0.7,1,1.6,1,2.8v7.1c0,0.3,0.1,0.5,0.2,0.7c0.1,0.2,0.3,0.2,0.5,0.2h0.8v1.7
			c-0.4,0.2-0.9,0.3-1.5,0.3c-0.6,0-1-0.1-1.4-0.4c-0.4-0.3-0.6-0.7-0.8-1.2h-0.1c-0.8,1.2-1.8,1.7-3.3,1.7
			C138.7,43.7,137.9,43.4,137.2,42.9z M142,40.8c0.5-0.6,0.7-1.3,0.7-2.3v-1.1c-1.3,0-2.4,0.2-3.1,0.5c-0.7,0.3-1.1,1-1.1,1.9
			c0,0.7,0.1,1.1,0.4,1.4c0.3,0.3,0.7,0.4,1.3,0.4C141,41.7,141.5,41.4,142,40.8z"/>
		<path d="M148.1,47.1c-0.6-0.6-0.9-1.3-0.9-2.2c0-0.6,0.2-1.2,0.5-1.7c0.3-0.5,0.7-0.9,1.2-1.1c-0.3-0.2-0.6-0.5-0.8-0.9
			c-0.2-0.4-0.3-0.7-0.3-1.1c0-0.5,0.2-1,0.5-1.4c0.3-0.4,0.8-0.7,1.4-0.9c-0.5-0.4-0.9-0.9-1.2-1.5c-0.3-0.6-0.4-1.3-0.4-2
			c0-1.4,0.4-2.5,1.2-3.3c0.8-0.8,1.9-1.2,3.3-1.2c0.8,0,1.4,0.2,2,0.5c0.9-0.6,1.4-1.3,1.5-2.3h2c0,0.8-0.2,1.5-0.6,2.1
			c-0.4,0.6-0.9,0.9-1.6,1.1c0.8,0.8,1.1,1.8,1.1,3.1c0,1.4-0.4,2.4-1.2,3.3c-0.8,0.8-1.9,1.2-3.3,1.2h-1.4c-0.3,0-0.6,0.1-0.8,0.3
			c-0.2,0.2-0.3,0.5-0.3,0.8c0,0.3,0.1,0.5,0.3,0.7c0.2,0.2,0.5,0.3,0.8,0.3h4c0.9,0,1.6,0.3,2.2,0.9c0.6,0.6,0.9,1.4,0.9,2.3
			c0,1.1-0.4,2-1.1,2.8c-0.7,0.7-1.7,1.1-2.9,1.1h-4.1C149.4,48,148.7,47.7,148.1,47.1z M154.6,46.1c0.4,0,0.8-0.1,1.1-0.4
			c0.3-0.3,0.4-0.6,0.4-1c0-0.4-0.1-0.8-0.4-1c-0.3-0.3-0.6-0.4-1.1-0.4h-3.6c-0.5,0-0.8,0.1-1.1,0.4c-0.3,0.3-0.4,0.6-0.4,1
			c0,0.4,0.1,0.8,0.4,1c0.3,0.3,0.6,0.4,1,0.4H154.6z M154.3,36.2c0.4-0.5,0.6-1.1,0.6-1.9c0-0.8-0.2-1.5-0.5-1.9
			c-0.4-0.4-0.9-0.7-1.6-0.7c-0.7,0-1.2,0.2-1.6,0.7c-0.4,0.5-0.5,1.1-0.5,1.9c0,0.8,0.2,1.5,0.5,1.9c0.4,0.5,0.9,0.7,1.6,0.7
			C153.4,36.9,153.9,36.7,154.3,36.2z"/>
		<path d="M161,42.1c-0.8-1.1-1.3-2.9-1.3-5.3c0-2.4,0.4-4.1,1.2-5.2c0.8-1.1,2.1-1.7,3.8-1.7c1.5,0,2.6,0.5,3.4,1.5
			c0.7,1,1.1,2.7,1.1,4.9v1.1h-7c0,1.4,0.2,2.5,0.6,3.2c0.4,0.7,1.1,1,2,1c0.6,0,1.1-0.3,1.5-0.8c0.4-0.5,0.6-1.2,0.6-2.1h2.3
			c0,1.5-0.4,2.7-1.2,3.6c-0.8,0.9-1.9,1.3-3.2,1.3C163.1,43.7,161.8,43.2,161,42.1z M166.7,35.5c0-1.2-0.2-2-0.5-2.7
			c-0.3-0.6-0.8-0.9-1.5-0.9c-0.8,0-1.4,0.3-1.8,0.9c-0.4,0.6-0.6,1.5-0.7,2.7H166.7z M165.3,25.2h2.5l0,0.1l-2.7,3.3h-2L165.3,25.2
			z"/>
		<path d="M172.5,42.1c-0.8-1.1-1.3-2.9-1.3-5.3c0-2.4,0.4-4.1,1.2-5.2c0.8-1.1,2.1-1.7,3.8-1.7c1.5,0,2.6,0.5,3.4,1.5
			c0.7,1,1.1,2.7,1.1,4.9v1.1h-7c0,1.4,0.2,2.5,0.6,3.2c0.4,0.7,1.1,1,2,1c0.6,0,1.1-0.3,1.5-0.8c0.4-0.5,0.6-1.2,0.6-2.1h2.3
			c0,1.5-0.4,2.7-1.2,3.6c-0.8,0.9-1.9,1.3-3.2,1.3C174.6,43.7,173.3,43.2,172.5,42.1z M178.2,35.5c0-1.2-0.2-2-0.5-2.7
			c-0.3-0.6-0.8-0.9-1.5-0.9c-0.8,0-1.4,0.3-1.8,0.9c-0.4,0.6-0.6,1.5-0.7,2.7H178.2z"/>
	</g>
</g>
</svg>
